<svg width="34" height="34" viewBox="0 0 34 34" fill="none" xmlns="http://www.w3.org/2000/svg">
<rect width="34" height="34" rx="3" fill="url(#paint0_linear_36_59)"/>
<path d="M6 9C6 8.44772 6.44772 8 7 8H8V29H7C6.44772 29 6 28.5523 6 28V9Z" fill="white"/>
<path d="M7 29C6.44772 29 6 28.5523 6 28V27H27V28C27 28.5523 26.5523 29 26 29H7Z" fill="white"/>
<path d="M9 7C9 6.44772 9.44772 6 10 6H28C28.5523 6 29 6.44772 29 7V25C29 25.5523 28.5523 26 28 26H9V7Z" fill="white"/>
<path d="M15.205 10.75C15.2048 11.1478 15.0466 11.5293 14.7651 11.8105C14.4837 12.0916 14.1021 12.2495 13.7042 12.2493C13.3064 12.2491 12.925 12.0908 12.6438 11.8094C12.3626 11.528 12.2048 11.1463 12.205 10.7485C12.2052 10.3507 12.3634 9.96924 12.6449 9.68808C12.9263 9.40691 13.3079 9.24907 13.7057 9.24927C14.1036 9.24947 14.485 9.40769 14.7662 9.68914C15.0473 9.97058 15.2052 10.3522 15.205 10.75V10.75ZM15.25 13.36H12.25V22.75H15.25V13.36ZM19.99 13.36H17.005V22.75H19.96V17.8225C19.96 15.0775 23.5375 14.8225 23.5375 17.8225V22.75H26.5V16.8025C26.5 12.175 21.205 12.3475 19.96 14.62L19.99 13.36V13.36Z" fill="url(#paint1_linear_36_59)"/>
<defs>
<linearGradient id="paint0_linear_36_59" x1="7.4375" y1="34" x2="34" y2="-1.01328e-06" gradientUnits="userSpaceOnUse">
<stop stop-color="#2A2A72"/>
<stop offset="0.661211" stop-color="#1266CE"/>
<stop offset="1" stop-color="#009FFD"/>
</linearGradient>
<linearGradient id="paint1_linear_36_59" x1="26.875" y1="9.25002" x2="12.25" y2="22.75" gradientUnits="userSpaceOnUse">
<stop stop-color="#2A2A72"/>
<stop offset="1" stop-color="#009FFD"/>
</linearGradient>
</defs>
</svg>
 